<mxfile host="app.diagrams.net" modified="2023-10-17T01:45:34.874Z" agent="Mozilla/5.0 (Macintosh; Intel Mac OS X 10.15; rv:109.0) Gecko/20100101 Firefox/118.0" etag="HINT6w_HDNNIVlhNP-No" version="22.0.4" type="github">
  <diagram name="Page-1" id="4F-CxtZxwAVtAaBu6MW3">
    <mxGraphModel dx="-458" dy="235" grid="1" gridSize="10" guides="1" tooltips="1" connect="1" arrows="1" fold="1" page="1" pageScale="1" pageWidth="827" pageHeight="1169" math="0" shadow="0">
      <root>
        <mxCell id="0" />
        <mxCell id="1" parent="0" />
        <mxCell id="r7YeVfHPNkTqQem7HZXz-14" value="" style="rounded=0;whiteSpace=wrap;html=1;fillColor=#dae8fc;flipH=1;strokeColor=#6c8ebf;flipV=0;movable=1;resizable=1;rotatable=1;deletable=1;editable=1;locked=0;connectable=1;" parent="1" vertex="1">
          <mxGeometry x="1640" y="820" width="1065" height="127.5" as="geometry" />
        </mxCell>
        <mxCell id="r7YeVfHPNkTqQem7HZXz-27" value="&lt;div style=&quot;font-size: 27px;&quot;&gt;&lt;font face=&quot;Helvetica&quot; style=&quot;font-size: 27px;&quot;&gt;&lt;b&gt;Exemple de séquence d&#39;un nouveau né&lt;/b&gt;&lt;/font&gt;&lt;/div&gt;" style="text;html=1;align=center;verticalAlign=middle;resizable=0;points=[];autosize=1;strokeColor=none;fillColor=none;fontSize=26;fontFamily=Garamond;" parent="1" vertex="1">
          <mxGeometry x="1908" y="750" width="530" height="50" as="geometry" />
        </mxCell>
        <mxCell id="r7YeVfHPNkTqQem7HZXz-54" value="" style="shape=singleArrow;whiteSpace=wrap;html=1;" parent="1" vertex="1">
          <mxGeometry x="1610" y="872" width="44" height="16" as="geometry" />
        </mxCell>
        <mxCell id="r7YeVfHPNkTqQem7HZXz-15" value="&lt;font style=&quot;font-size: 15px;&quot; color=&quot;#ffffff&quot;&gt;&#39;P55&#39;&lt;/font&gt;" style="ellipse;whiteSpace=wrap;html=1;fillColor=#9CC7FF;flipH=1;strokeColor=#006EAF;movable=1;resizable=1;rotatable=1;deletable=1;editable=1;locked=0;connectable=1;" parent="1" vertex="1">
          <mxGeometry x="1937" y="844" width="75" height="75" as="geometry" />
        </mxCell>
        <mxCell id="r7YeVfHPNkTqQem7HZXz-16" value="&lt;font style=&quot;font-size: 20px;&quot;&gt;&#39;&lt;/font&gt;&lt;font style=&quot;font-size: 15px;&quot;&gt;Z38&lt;/font&gt;&lt;font style=&quot;font-size: 20px;&quot;&gt;&#39;&lt;/font&gt;" style="ellipse;whiteSpace=wrap;html=1;fillColor=#9CC7FF;flipH=1;strokeColor=#006EAF;fontColor=#ffffff;movable=1;resizable=1;rotatable=1;deletable=1;editable=1;locked=0;connectable=1;" parent="1" vertex="1">
          <mxGeometry x="1746" y="842.5" width="75" height="75" as="geometry" />
        </mxCell>
        <mxCell id="r7YeVfHPNkTqQem7HZXz-17" value="&lt;font style=&quot;font-size: 15px;&quot; color=&quot;#ffffff&quot;&gt;&#39;P70&#39;&lt;/font&gt;" style="ellipse;whiteSpace=wrap;html=1;fillColor=#9CC7FF;flipH=1;strokeColor=#006EAF;movable=1;resizable=1;rotatable=1;deletable=1;editable=1;locked=0;connectable=1;" parent="1" vertex="1">
          <mxGeometry x="1842" y="844" width="75" height="75" as="geometry" />
        </mxCell>
        <mxCell id="r7YeVfHPNkTqQem7HZXz-18" value="&lt;font style=&quot;font-size: 15px;&quot; color=&quot;#ffffff&quot;&gt;&#39;P00&#39;&lt;/font&gt;" style="ellipse;whiteSpace=wrap;html=1;fillColor=#9CC7FF;flipH=1;strokeColor=#006EAF;movable=1;resizable=1;rotatable=1;deletable=1;editable=1;locked=0;connectable=1;" parent="1" vertex="1">
          <mxGeometry x="2033" y="846" width="75" height="75" as="geometry" />
        </mxCell>
        <mxCell id="r7YeVfHPNkTqQem7HZXz-19" value="&lt;font style=&quot;font-size: 15px;&quot;&gt;&#39;SEP&#39;&lt;/font&gt;" style="rhombus;whiteSpace=wrap;html=1;flipH=1;direction=north;fillColor=#fff2cc;strokeColor=#d6b656;movable=1;resizable=1;rotatable=1;deletable=1;editable=1;locked=0;connectable=1;" parent="1" vertex="1">
          <mxGeometry x="2129" y="843" width="75" height="75" as="geometry" />
        </mxCell>
        <mxCell id="r7YeVfHPNkTqQem7HZXz-20" value="&lt;font style=&quot;font-size: 15px;&quot; color=&quot;#ffffff&quot;&gt;&#39;E86&#39;&lt;/font&gt;" style="ellipse;whiteSpace=wrap;html=1;fillColor=#9CC7FF;flipH=1;strokeColor=#006EAF;movable=1;resizable=1;rotatable=1;deletable=1;editable=1;locked=0;connectable=1;" parent="1" vertex="1">
          <mxGeometry x="2225" y="844" width="75" height="75" as="geometry" />
        </mxCell>
        <mxCell id="r7YeVfHPNkTqQem7HZXz-21" value="&lt;font style=&quot;font-size: 15px;&quot; color=&quot;#ffffff&quot;&gt;&#39;A02&#39;&lt;/font&gt;" style="ellipse;whiteSpace=wrap;html=1;fillColor=#9CC7FF;flipH=1;strokeColor=#006EAF;movable=1;resizable=1;rotatable=1;deletable=1;editable=1;locked=0;connectable=1;" parent="1" vertex="1">
          <mxGeometry x="2320" y="845" width="75" height="75" as="geometry" />
        </mxCell>
        <mxCell id="r7YeVfHPNkTqQem7HZXz-22" value="&lt;font style=&quot;font-size: 15px;&quot; color=&quot;#ffffff&quot;&gt;&#39;N39&#39;&lt;/font&gt;" style="ellipse;whiteSpace=wrap;html=1;fillColor=#9CC7FF;flipH=1;strokeColor=#006EAF;movable=1;resizable=1;rotatable=1;deletable=1;editable=1;locked=0;connectable=1;" parent="1" vertex="1">
          <mxGeometry x="2416" y="846" width="75" height="75" as="geometry" />
        </mxCell>
        <mxCell id="r7YeVfHPNkTqQem7HZXz-23" value="&lt;font style=&quot;font-size: 15px;&quot;&gt;&#39;SEP&#39;&lt;/font&gt;" style="rhombus;whiteSpace=wrap;html=1;flipH=1;fillColor=#fff2cc;strokeColor=#d6b656;movable=1;resizable=1;rotatable=1;deletable=1;editable=1;locked=0;connectable=1;" parent="1" vertex="1">
          <mxGeometry x="2512" y="849" width="75" height="75" as="geometry" />
        </mxCell>
        <mxCell id="r7YeVfHPNkTqQem7HZXz-24" value="&lt;font style=&quot;font-size: 15px;&quot; color=&quot;#ffffff&quot;&gt;&#39;J21&#39;&lt;/font&gt;" style="ellipse;whiteSpace=wrap;html=1;fillColor=#9CC7FF;flipH=1;strokeColor=#006EAF;movable=1;resizable=1;rotatable=1;deletable=1;editable=1;locked=0;connectable=1;" parent="1" vertex="1">
          <mxGeometry x="2607.5" y="847" width="75" height="75" as="geometry" />
        </mxCell>
        <mxCell id="r7YeVfHPNkTqQem7HZXz-25" value="&lt;font style=&quot;font-size: 15px;&quot;&gt;&#39;CLS&#39;&lt;/font&gt;" style="whiteSpace=wrap;html=1;aspect=fixed;direction=east;flipH=1;flipV=1;strokeColor=#d6b656;fillColor=#fff2cc;movable=1;resizable=1;rotatable=1;deletable=1;editable=1;locked=0;connectable=1;" parent="1" vertex="1">
          <mxGeometry x="1662.5" y="850" width="60.63" height="60.63" as="geometry" />
        </mxCell>
        <mxCell id="zCf8qeoapj470LS2QK_0-2" value="&lt;font style=&quot;font-size: 18px;&quot;&gt;Text&lt;/font&gt;" style="text;html=1;align=center;verticalAlign=middle;resizable=0;points=[];autosize=1;strokeColor=none;fillColor=none;" vertex="1" parent="1">
          <mxGeometry x="1535" y="993" width="60" height="40" as="geometry" />
        </mxCell>
        <mxCell id="zCf8qeoapj470LS2QK_0-3" value="" style="group" vertex="1" connectable="0" parent="1">
          <mxGeometry x="1160" y="480" width="426" height="627.5" as="geometry" />
        </mxCell>
        <mxCell id="zCf8qeoapj470LS2QK_0-4" value="" style="group;fillColor=#e1d5e7;strokeColor=#9673a6;" vertex="1" connectable="0" parent="zCf8qeoapj470LS2QK_0-3">
          <mxGeometry x="319.5" y="492.43273542600895" width="71.79775280898876" height="135.06726457399103" as="geometry" />
        </mxCell>
        <mxCell id="zCf8qeoapj470LS2QK_0-5" value="" style="endArrow=none;html=1;rounded=0;fillColor=#e1d5e7;strokeColor=#9673a6;" edge="1" parent="zCf8qeoapj470LS2QK_0-4">
          <mxGeometry width="50" height="50" relative="1" as="geometry">
            <mxPoint x="4.2512809751938576e-15" y="66.99336322869952" as="sourcePoint" />
            <mxPoint x="71.79775280898876" y="66.756995515695" as="targetPoint" />
          </mxGeometry>
        </mxCell>
        <mxCell id="zCf8qeoapj470LS2QK_0-6" value="" style="group;fillColor=#FFE6CC;strokeColor=#d79b00;" vertex="1" connectable="0" parent="zCf8qeoapj470LS2QK_0-3">
          <mxGeometry x="29.91573033707865" y="492.43273542600895" width="71.79775280898876" height="135.06726457399103" as="geometry" />
        </mxCell>
        <mxCell id="zCf8qeoapj470LS2QK_0-7" value="" style="endArrow=none;html=1;rounded=0;fillColor=#ffe6cc;strokeColor=#d79b00;" edge="1" parent="zCf8qeoapj470LS2QK_0-6">
          <mxGeometry width="50" height="50" relative="1" as="geometry">
            <mxPoint x="4.2512809751938576e-15" y="66.99336322869952" as="sourcePoint" />
            <mxPoint x="71.79775280898876" y="66.756995515695" as="targetPoint" />
          </mxGeometry>
        </mxCell>
        <mxCell id="zCf8qeoapj470LS2QK_0-8" value="" style="group;fillColor=#d5e8d4;strokeColor=#82b366;" vertex="1" connectable="0" parent="zCf8qeoapj470LS2QK_0-3">
          <mxGeometry x="175.90449438202245" y="492.43273542600895" width="71.79775280898876" height="135.06726457399103" as="geometry" />
        </mxCell>
        <mxCell id="zCf8qeoapj470LS2QK_0-9" value="" style="endArrow=none;html=1;rounded=0;fillColor=#d5e8d4;strokeColor=#82b366;" edge="1" parent="zCf8qeoapj470LS2QK_0-8">
          <mxGeometry width="50" height="50" relative="1" as="geometry">
            <mxPoint x="4.2512809751938576e-15" y="66.99336322869952" as="sourcePoint" />
            <mxPoint x="71.79775280898876" y="66.756995515695" as="targetPoint" />
          </mxGeometry>
        </mxCell>
        <mxCell id="zCf8qeoapj470LS2QK_0-10" value="" style="group" vertex="1" connectable="0" parent="zCf8qeoapj470LS2QK_0-3">
          <mxGeometry x="126.84269662921348" y="548.7107623318385" width="47.865168539325836" height="51.775784753363226" as="geometry" />
        </mxCell>
        <mxCell id="zCf8qeoapj470LS2QK_0-11" value="" style="endArrow=none;html=1;rounded=0;strokeWidth=2;" edge="1" parent="zCf8qeoapj470LS2QK_0-10">
          <mxGeometry width="50" height="50" relative="1" as="geometry">
            <mxPoint x="11.966292134831459" y="22.511210762331835" as="sourcePoint" />
            <mxPoint x="11.966292134831459" as="targetPoint" />
          </mxGeometry>
        </mxCell>
        <mxCell id="zCf8qeoapj470LS2QK_0-12" value="" style="endArrow=none;html=1;rounded=0;strokeWidth=2;" edge="1" parent="zCf8qeoapj470LS2QK_0-10">
          <mxGeometry width="50" height="50" relative="1" as="geometry">
            <mxPoint x="23.932584269662918" y="11.604529147982001" as="sourcePoint" />
            <mxPoint y="11.604529147982001" as="targetPoint" />
          </mxGeometry>
        </mxCell>
        <mxCell id="zCf8qeoapj470LS2QK_0-13" value="" style="group" vertex="1" connectable="0" parent="zCf8qeoapj470LS2QK_0-3">
          <mxGeometry x="270.438202247191" y="548.7107623318385" width="23.932584269662918" height="22.511210762331835" as="geometry" />
        </mxCell>
        <mxCell id="zCf8qeoapj470LS2QK_0-14" value="" style="endArrow=none;html=1;rounded=0;strokeWidth=2;" edge="1" parent="zCf8qeoapj470LS2QK_0-13">
          <mxGeometry width="50" height="50" relative="1" as="geometry">
            <mxPoint x="11.966292134831459" y="22.511210762331835" as="sourcePoint" />
            <mxPoint x="11.966292134831459" as="targetPoint" />
          </mxGeometry>
        </mxCell>
        <mxCell id="zCf8qeoapj470LS2QK_0-15" value="" style="endArrow=none;html=1;rounded=0;strokeWidth=2;" edge="1" parent="zCf8qeoapj470LS2QK_0-13">
          <mxGeometry width="50" height="50" relative="1" as="geometry">
            <mxPoint x="23.932584269662918" y="11.604529147982001" as="sourcePoint" />
            <mxPoint y="11.604529147982001" as="targetPoint" />
          </mxGeometry>
        </mxCell>
        <mxCell id="zCf8qeoapj470LS2QK_0-16" value="&lt;div style=&quot;font-size: 20px;&quot;&gt;&lt;font style=&quot;font-size: 20px;&quot;&gt;&lt;b style=&quot;font-size: 20px;&quot;&gt;Age&lt;/b&gt;&lt;/font&gt;&lt;/div&gt;&lt;div style=&quot;font-size: 20px;&quot;&gt;&lt;font style=&quot;font-size: 20px;&quot;&gt;&lt;b style=&quot;font-size: 20px;&quot;&gt;Embedding&lt;br style=&quot;font-size: 20px;&quot;&gt;&lt;/b&gt;&lt;/font&gt;&lt;/div&gt;" style="text;html=1;align=center;verticalAlign=middle;resizable=0;points=[];autosize=1;strokeColor=none;fillColor=none;fontSize=20;" vertex="1" parent="zCf8qeoapj470LS2QK_0-3">
          <mxGeometry x="-7" y="422.7130044843049" width="130" height="60" as="geometry" />
        </mxCell>
        <mxCell id="zCf8qeoapj470LS2QK_0-17" value="&lt;div style=&quot;font-size: 20px;&quot;&gt;&lt;font style=&quot;font-size: 20px;&quot;&gt;&lt;b style=&quot;font-size: 20px;&quot;&gt;Positional &lt;br style=&quot;font-size: 20px;&quot;&gt;&lt;/b&gt;&lt;/font&gt;&lt;/div&gt;&lt;div style=&quot;font-size: 20px;&quot;&gt;&lt;font style=&quot;font-size: 20px;&quot;&gt;&lt;b style=&quot;font-size: 20px;&quot;&gt;Embedding&lt;br style=&quot;font-size: 20px;&quot;&gt;&lt;/b&gt;&lt;/font&gt;&lt;/div&gt;" style="text;html=1;align=center;verticalAlign=middle;resizable=0;points=[];autosize=1;strokeColor=none;fillColor=none;fontSize=20;" vertex="1" parent="zCf8qeoapj470LS2QK_0-3">
          <mxGeometry x="135.98876404494382" y="422.7130044843049" width="130" height="60" as="geometry" />
        </mxCell>
        <mxCell id="zCf8qeoapj470LS2QK_0-18" value="&lt;div style=&quot;font-size: 20px;&quot;&gt;&lt;font style=&quot;font-size: 20px;&quot;&gt;&lt;b style=&quot;font-size: 20px;&quot;&gt;Diagnostic &lt;br style=&quot;font-size: 20px;&quot;&gt;&lt;/b&gt;&lt;/font&gt;&lt;/div&gt;&lt;div style=&quot;font-size: 20px;&quot;&gt;&lt;font style=&quot;font-size: 20px;&quot;&gt;&lt;b style=&quot;font-size: 20px;&quot;&gt;Embedding&lt;br style=&quot;font-size: 20px;&quot;&gt;&lt;/b&gt;&lt;/font&gt;&lt;/div&gt;" style="text;html=1;align=center;verticalAlign=middle;resizable=0;points=[];autosize=1;strokeColor=none;fillColor=none;fontSize=20;" vertex="1" parent="zCf8qeoapj470LS2QK_0-3">
          <mxGeometry x="279.5842696629213" y="422.7130044843049" width="130" height="60" as="geometry" />
        </mxCell>
        <mxCell id="zCf8qeoapj470LS2QK_0-19" value="" style="group;fillColor=#fff2cc;strokeColor=#d6b656;flipH=0;flipV=1;direction=south;" vertex="1" connectable="0" parent="1">
          <mxGeometry x="1017.9297384995212" y="1004.0674913085102" width="135.06726457399103" height="71.79775280898876" as="geometry" />
        </mxCell>
        <mxCell id="zCf8qeoapj470LS2QK_0-21" value="&lt;div style=&quot;font-size: 20px;&quot;&gt;&lt;font style=&quot;font-size: 20px;&quot;&gt;&lt;b style=&quot;font-size: 20px;&quot;&gt;Segment &lt;br style=&quot;font-size: 20px;&quot;&gt;&lt;/b&gt;&lt;/font&gt;&lt;/div&gt;&lt;div style=&quot;font-size: 20px;&quot;&gt;&lt;font style=&quot;font-size: 20px;&quot;&gt;&lt;b style=&quot;font-size: 20px;&quot;&gt;Embedding&lt;br style=&quot;font-size: 20px;&quot;&gt;&lt;/b&gt;&lt;/font&gt;&lt;/div&gt;" style="text;html=1;align=center;verticalAlign=middle;resizable=0;points=[];autosize=1;strokeColor=none;fillColor=none;fontSize=20;" vertex="1" parent="1">
          <mxGeometry x="1011.9887640449438" y="902.8830044843049" width="130" height="60" as="geometry" />
        </mxCell>
        <mxCell id="zCf8qeoapj470LS2QK_0-20" value="" style="endArrow=none;html=1;rounded=0;fillColor=#fff2cc;strokeColor=#d6b656;" edge="1" parent="1">
          <mxGeometry width="50" height="50" relative="1" as="geometry">
            <mxPoint x="1085" y="1076" as="sourcePoint" />
            <mxPoint x="1085" y="1004.6300000000001" as="targetPoint" />
          </mxGeometry>
        </mxCell>
      </root>
    </mxGraphModel>
  </diagram>
</mxfile>
